<svg width="34" height="31" viewBox="0 0 34 31" fill="none" xmlns="http://www.w3.org/2000/svg">
<path d="M12.7499 3.875L10.1574 6.45833H5.66659C4.10825 6.45833 2.83325 7.62083 2.83325 9.04167V24.5417C2.83325 25.9625 4.10825 27.125 5.66659 27.125H28.3333C29.8916 27.125 31.1666 25.9625 31.1666 24.5417V9.04167C31.1666 7.62083 29.8916 6.45833 28.3333 6.45833H23.8424L21.2499 3.875H12.7499ZM16.9999 23.25C13.0899 23.25 9.91659 20.3567 9.91659 16.7917C9.91659 13.2267 13.0899 10.3333 16.9999 10.3333C20.9099 10.3333 24.0833 13.2267 24.0833 16.7917C24.0833 20.3567 20.9099 23.25 16.9999 23.25Z" fill="#F3F2F2"/>
<path d="M16.9999 21.9583L18.7708 18.4062L22.6666 16.7917L18.7708 15.1771L16.9999 11.625L15.2291 15.1771L11.3333 16.7917L15.2291 18.4062L16.9999 21.9583Z" fill="#F3F2F2"/>
</svg>
