<svg width="34" height="32" viewBox="0 0 34 32" fill="none" xmlns="http://www.w3.org/2000/svg">
<path d="M11 10C11 9.44772 11.4477 9 12 9H15.9905C18.2127 9 19.9333 9.60955 21.1524 10.8287C22.3841 12.0478 23 13.765 23 15.9803C23 18.2088 22.3841 19.9391 21.1524 21.1713C19.9333 22.3904 18.2127 23 15.9905 23H12C11.4477 23 11 22.5523 11 22V10Z" fill="url(#paint0_linear)"/>
<circle cx="18" cy="16" r="16" fill="#E20515"/>
<path d="M16.0299 28C19.1547 28 22.8618 21.6153 24.6005 17.8381C26.4458 13.83 29.0949 6 24.2314 6C19.3925 6 7 13.4873 7 17.8381C7 19.6932 11.5108 14.4111 12.7083 15.7596C14.3158 17.5774 13.2496 28 16.0299 28Z" fill="white"/>
<defs>
<linearGradient id="paint0_linear" x1="11" y1="9" x2="23" y2="23" gradientUnits="userSpaceOnUse">
<stop stop-color="white" stop-opacity="0.7"/>
<stop offset="1" stop-color="white"/>
</linearGradient>
</defs>
</svg>
