<svg width="15" height="15" viewBox="0 0 15 15" fill="none" xmlns="http://www.w3.org/2000/svg">
<path d="M9.375 0.625H2.5C1.8125 0.625 1.25 1.1875 1.25 1.875V10C1.25 10.3437 1.53125 10.625 1.875 10.625C2.21875 10.625 2.5 10.3437 2.5 10V2.5C2.5 2.15625 2.78125 1.875 3.125 1.875H9.375C9.71875 1.875 10 1.59375 10 1.25C10 0.90625 9.71875 0.625 9.375 0.625ZM11.875 3.125H5C4.3125 3.125 3.75 3.6875 3.75 4.375V13.125C3.75 13.8125 4.3125 14.375 5 14.375H11.875C12.5625 14.375 13.125 13.8125 13.125 13.125V4.375C13.125 3.6875 12.5625 3.125 11.875 3.125ZM11.25 13.125H5.625C5.28125 13.125 5 12.8437 5 12.5V5C5 4.65625 5.28125 4.375 5.625 4.375H11.25C11.5937 4.375 11.875 4.65625 11.875 5V12.5C11.875 12.8437 11.5937 13.125 11.25 13.125Z" fill="#999999"/>
</svg>
