<svg width="320" height="52" viewBox="0 0 320 52" fill="none" xmlns="http://www.w3.org/2000/svg">
<g clip-path="url(#clip0)">
<path d="M302.218 0.447995L290.372 25.2157L278.525 0.447995H263.557H260.812H221.831H221.82H175.15V12.2985C172.394 4.76794 165.092 0.447995 154.43 0.447995H130.11V22.2931C128.15 9.71722 116.178 0 101.723 0C91.1861 0 81.9593 5.17327 76.9813 12.8425L82.1871 0.437328H64.6447L55.8508 22.6024L45.2342 0.447995H37.0326L26.3477 22.6237L17.5424 0.447995H0L21.404 51.2634H29.7651L41.1106 26.549L52.5132 51.2634H60.8629L73.6096 20.8958C73.2564 22.5064 73.0742 24.181 73.0742 25.8877C73.0742 40.1595 85.9348 51.7754 101.734 51.7754C116.19 51.7754 128.173 42.0582 130.11 29.4823V51.2741H146.308V39.7755H151.924C152.003 39.7755 152.095 39.7755 152.174 39.7755L161.23 51.4127H180.72L168.35 35.8182C172.553 33.0769 176.392 28.213 176.392 19.6051C176.392 17.7491 176.175 16.0211 175.788 14.4105H190.335V51.2634H206.601V14.4105H221.831V51.2634H264.992V37.3009H237.733V33.3756H259.342V19.6691H237.733V14.4105H263.545V5.96259L286.054 51.2527H294.677L320 0.437328H302.218V0.447995ZM110.722 28.1703C108.307 33.5783 103.158 42.7195 98.8182 42.7195C94.9566 42.7195 96.4374 27.797 94.2048 25.1944C92.5416 23.2637 86.2765 30.8263 86.2765 28.1703C86.2765 21.9411 103.489 11.2212 110.209 11.2212C116.964 11.2212 113.285 22.4317 110.722 28.1703ZM151.571 26.197H146.285V14.4105H152.846C157.517 14.4105 159.681 16.2878 159.681 20.3091C159.704 24.213 156.97 26.197 151.571 26.197Z" fill="#E20515"/>
</g>
<defs>
<clipPath id="clip0">
<rect width="320" height="51.7647" fill="white"/>
</clipPath>
</defs>
</svg>
