<svg id="Capa_1" data-name="Capa 1" xmlns="http://www.w3.org/2000/svg" viewBox="0 0 480.09 480.22"><defs><style>.cls-1{fill:#fff;}</style></defs><title>grow</title><path class="cls-1" d="M480.16,260.88v167a52.43,52.43,0,0,1-52.38,52.36H52.45A52.43,52.43,0,0,1,.06,427.86V52.94A52.44,52.44,0,0,1,52.45.57H219.89a58.13,58.13,0,0,0-16.32,35H52.45A17.39,17.39,0,0,0,35.07,52.94V427.86a17.39,17.39,0,0,0,17.38,17.36H427.77a17.38,17.38,0,0,0,17.37-17.36V277.17A57.85,57.85,0,0,0,480.16,260.88Z" transform="translate(-0.06 0)"/><path class="cls-1" d="M273.68,52.51H388.13L202.87,237.78A26.26,26.26,0,0,0,240,274.92L425.26,89.65V204.11a26.27,26.27,0,0,0,52.53,0V26.26A26.26,26.26,0,0,0,451.53,0H273.68a26.26,26.26,0,1,0,0,52.51Z" transform="translate(-0.06 0)"/></svg>