<svg width="32" height="32" viewBox="0 0 32 32" fill="none" xmlns="http://www.w3.org/2000/svg">
<path d="M15.8752 31.2747C16.8404 31.2628 17.6103 30.4737 17.5985 29.5086L17.4624 17.4196L29.5637 17.2711C30.5288 17.2592 31.2987 16.4701 31.2869 15.505C31.275 14.5399 30.486 13.7699 29.5208 13.7817L17.4196 13.9303L17.271 1.82908C17.2592 0.863948 16.4701 0.0939919 15.505 0.105839C14.5398 0.117687 13.7699 0.906783 13.7817 1.87191L13.9303 13.9731L1.82907 14.1217C0.863944 14.1335 0.0939878 14.9226 0.105836 15.8878C0.117684 16.8529 0.906779 17.6228 1.87191 17.611L13.9731 17.4624L14.1217 29.5637C14.1332 30.504 14.9348 31.2862 15.8752 31.2747Z" fill="#C4C4C4"/>
</svg>
